<?xml version="1.0" standalone="no"?>
<!DOCTYPE svg PUBLIC "-//W3C//DTD SVG 20010904//EN"
 "http://www.w3.org/TR/2001/REC-SVG-20010904/DTD/svg10.dtd">
<svg version="1.0" xmlns="http://www.w3.org/2000/svg"
 width="730.000000pt" height="342.000000pt" viewBox="0 0 730.000000 342.000000"
 preserveAspectRatio="xMidYMid meet">

<g transform="translate(0.000000,342.000000) scale(0.100000,-0.100000)"
fill="#000000" stroke="none">
<path d="M1890 3046 c0 -3 9 -21 21 -40 l21 -36 93 0 92 0 27 40 26 40 -140 0
c-77 0 -140 -2 -140 -4z"/>
<path d="M1940 2891 c0 -46 4 -71 13 -74 10 -4 10 -6 0 -6 -10 -1 -13 -100
-13 -458 0 -293 -4 -472 -11 -496 -8 -30 -18 -42 -46 -54 -47 -19 -96 -10
-123 24 -19 25 -20 37 -20 504 l0 479 -77 2 -78 2 78 5 c74 6 78 7 97 39 11
18 20 35 20 37 0 3 -63 5 -140 5 l-139 0 21 -36 c11 -20 30 -40 42 -44 18 -7
18 -9 3 -9 -17 -1 -18 -26 -15 -493 3 -477 4 -494 24 -538 45 -96 122 -141
244 -143 130 -3 217 38 261 125 32 63 39 176 39 626 -1 391 -2 422 -18 422
-16 1 -16 1 1 11 13 8 17 24 17 74 0 58 -2 65 -20 65 -18 0 -20 -7 -20 -75 l0
-75 -55 0 -55 0 0 75 c0 60 -3 75 -15 75 -12 0 -15 -14 -15 -69z"/>
<path d="M1980 2889 c0 -62 2 -70 18 -67 14 3 18 16 20 71 3 62 1 67 -18 67
-18 0 -20 -6 -20 -71z"/>
<path d="M2036 2898 c-6 -61 2 -87 23 -74 17 11 14 136 -3 136 -9 0 -15 -20
-20 -62z"/>
<path d="M2270 2630 l0 -200 105 0 104 0 3 73 3 72 113 3 c86 2 112 0 112 -10
0 -7 -31 -53 -68 -103 -127 -170 -326 -440 -359 -489 l-33 -48 0 -129 0 -129
470 0 470 0 0 205 0 205 -110 0 -109 0 -3 -77 -3 -78 -108 -2 c-182 -2 -191
-36 89 342 l243 330 1 118 0 117 -460 0 -460 0 0 -200z"/>
<path d="M3292 2693 l3 -138 38 -3 37 -3 0 -300 0 -299 -40 0 -41 0 3 -137 3
-138 188 -3 187 -2 0 140 0 140 -40 0 -40 0 0 307 c0 173 4 303 9 298 4 -6 13
-28 19 -50 5 -22 42 -141 81 -265 39 -124 94 -303 123 -397 l53 -173 70 0 70
0 53 168 c28 92 90 291 137 442 47 151 88 276 90 279 3 2 5 -134 5 -302 l0
-307 -35 0 -35 0 0 -140 0 -140 244 0 c218 0 245 2 248 16 2 9 2 72 0 140 l-3
124 -35 0 -34 0 0 300 0 300 35 0 35 0 0 140 0 140 -284 0 -283 0 -51 -157
c-28 -87 -58 -184 -68 -215 -10 -32 -21 -58 -24 -58 -7 0 -39 96 -110 328
l-32 102 -289 0 -290 0 3 -137z"/>
<path d="M4970 2690 l0 -140 41 0 c35 0 40 -3 34 -17 -3 -10 -15 -47 -25 -83
-10 -36 -47 -162 -82 -280 l-64 -215 -37 -3 -37 -3 0 -140 0 -139 185 0 c159
0 186 2 192 16 3 8 2 66 -3 127 l-9 112 -27 0 c-15 1 -30 3 -32 6 -3 3 2 34
12 70 l17 64 125 0 125 0 17 -65 c19 -71 15 -80 -34 -80 l-28 0 0 -125 0 -125
245 0 245 0 0 140 0 140 -33 0 -34 0 -33 108 c-18 59 -47 157 -65 217 -18 61
-44 147 -58 193 l-25 82 39 0 39 0 0 140 0 140 -345 0 -345 0 0 -140z m340
-325 l38 -145 -84 0 c-46 0 -84 3 -84 6 0 3 12 47 26 97 14 51 32 116 40 146
8 29 18 51 21 47 3 -3 23 -71 43 -151z"/>
<path d="M5900 2690 l0 -140 40 0 40 0 0 -300 0 -300 -40 0 -40 0 0 -140 0
-140 190 0 190 0 0 140 0 140 -40 0 -40 0 0 195 c0 107 3 195 8 195 4 0 38
-56 76 -123 37 -67 125 -220 194 -340 l125 -217 154 2 155 3 -2 443 -1 442 46
0 45 0 0 140 0 140 -195 0 -196 0 3 -137 3 -138 38 -3 37 -3 0 -155 c0 -85 -2
-154 -3 -154 -2 0 -80 133 -173 295 l-168 295 -223 0 -223 0 0 -140z"/>
<path d="M755 2800 c-182 -40 -336 -208 -380 -416 -17 -82 -19 -236 -4 -320
22 -122 98 -267 171 -329 59 -50 171 -96 274 -113 255 -42 459 69 544 295 20
54 39 193 40 286 l0 47 -212 -2 -213 -3 -3 -107 -3 -108 51 0 c47 0 50 -2 50
-25 0 -34 -23 -86 -47 -107 -33 -30 -101 -33 -152 -6 -75 39 -101 118 -101
308 0 179 30 284 90 315 16 8 55 15 88 15 73 0 113 -24 162 -98 l34 -52 108 0
108 0 0 205 0 205 -110 0 -110 0 0 -35 c0 -40 -17 -46 -45 -15 -45 50 -234 84
-340 60z"/>
<path d="M473 1518 c-67 -33 -104 -151 -85 -278 13 -91 35 -144 146 -353 79
-151 99 -214 76 -242 -20 -24 -56 -18 -78 13 -10 15 -32 60 -47 100 -27 70
-29 72 -62 72 -33 0 -34 -1 -29 -32 3 -18 10 -69 16 -113 6 -44 13 -90 16
-102 5 -27 30 -30 55 -7 16 14 20 14 48 0 16 -9 49 -16 72 -16 37 0 48 6 83
43 48 50 66 100 66 185 0 104 -18 161 -119 367 -54 110 -102 215 -105 232 -10
42 1 73 23 73 25 0 45 -25 82 -105 36 -76 43 -85 77 -85 18 0 22 5 22 33 0 39
-27 204 -35 217 -10 16 -36 11 -53 -10 l-17 -21 -40 21 c-43 22 -78 24 -112 8z"/>
<path d="M2852 1513 c-98 -48 -152 -211 -152 -460 1 -316 84 -493 233 -493 84
0 157 83 157 177 0 48 -13 59 -54 49 -20 -5 -25 -14 -31 -58 -11 -79 -21 -98
-50 -98 -18 0 -28 7 -35 26 -14 35 -13 708 1 757 7 25 16 37 28 37 29 0 43
-24 65 -113 19 -75 23 -82 47 -85 19 -2 28 2 31 16 5 19 -9 229 -17 250 -6 17
-35 15 -57 -5 -18 -16 -21 -16 -47 0 -36 21 -76 21 -119 0z"/>
<path d="M3495 1518 c-34 -17 -68 -68 -82 -121 -35 -135 -4 -244 151 -527 63
-116 83 -173 72 -213 -5 -22 -12 -27 -36 -27 -23 0 -35 8 -55 37 -14 21 -25
41 -25 45 0 4 -9 32 -21 63 -18 49 -23 55 -49 55 -16 0 -31 -4 -34 -8 -4 -7
18 -191 29 -239 6 -27 31 -30 56 -7 16 14 20 14 48 0 16 -9 48 -16 70 -16 33
0 49 7 80 35 49 44 71 106 71 196 0 106 -18 161 -116 359 -102 207 -119 250
-110 286 15 58 71 11 116 -96 12 -30 28 -58 34 -62 18 -12 54 -9 58 4 3 7 -4
64 -13 128 -10 63 -18 116 -19 118 0 1 -11 2 -24 2 -13 0 -30 -9 -37 -20 l-14
-21 -40 21 c-43 22 -78 25 -110 8z"/>
<path d="M5885 1520 c-34 -14 -83 -72 -110 -132 -46 -100 -57 -184 -52 -373 4
-151 7 -179 31 -250 49 -144 108 -205 201 -205 44 0 57 5 92 35 44 37 67 96
61 156 -2 27 -8 35 -26 37 -34 5 -49 -13 -55 -68 -8 -70 -22 -92 -55 -88 l-27
3 -3 385 c-1 212 0 395 3 408 6 27 36 29 57 5 9 -10 21 -43 28 -73 21 -93 30
-111 54 -108 19 3 21 10 24 78 4 113 -9 194 -31 198 -10 2 -27 -4 -37 -13 -17
-15 -21 -15 -49 -1 -32 17 -74 20 -106 6z"/>
<path d="M6705 1519 c-59 -29 -102 -148 -91 -254 9 -91 33 -152 140 -359 91
-176 106 -219 90 -260 -4 -9 -18 -16 -35 -16 -23 0 -33 8 -53 43 -14 23 -34
68 -46 100 -19 51 -24 57 -50 57 -16 0 -31 -4 -34 -8 -3 -6 20 -189 34 -259 1
-10 37 0 52 14 18 16 21 16 47 0 16 -9 48 -17 71 -17 37 0 49 6 85 43 50 49
65 94 65 192 -1 107 -13 144 -120 365 -105 214 -122 272 -88 294 25 15 51 -14
96 -105 29 -57 42 -75 61 -77 13 -2 27 0 32 5 7 7 -10 151 -27 231 -6 29 -46
30 -66 1 l-14 -21 -34 21 c-37 22 -82 26 -115 10z"/>
<path d="M803 1513 c-21 -8 -15 -60 7 -76 20 -14 21 -24 21 -397 l0 -382 -26
-24 c-16 -15 -25 -31 -21 -40 3 -9 6 -18 6 -20 0 -2 88 -4 195 -4 224 0 196
-16 216 124 12 85 7 100 -31 94 -18 -2 -28 -18 -49 -78 -25 -71 -28 -75 -58
-78 l-33 -3 0 206 0 206 32 -3 c27 -3 33 -8 42 -43 10 -33 16 -41 39 -43 l27
-3 0 126 0 126 -27 -3 c-24 -3 -29 -9 -37 -45 -8 -40 -11 -43 -42 -43 l-34 0
0 171 0 170 28 -3 c21 -2 31 -12 45 -43 38 -83 42 -90 70 -93 22 -3 27 1 27
20 0 47 -29 171 -42 179 -14 9 -334 11 -355 2z"/>
<path d="M1263 1514 c-21 -10 -16 -72 7 -84 19 -10 20 -21 20 -395 0 -378 0
-384 -21 -390 -16 -5 -19 -14 -17 -38 l3 -32 140 0 140 0 3 26 c2 19 -4 31
-22 43 -25 16 -26 19 -26 130 l0 113 64 5 c44 4 80 14 116 34 91 49 122 118
124 269 2 154 -37 236 -136 290 -49 27 -57 28 -217 31 -91 2 -172 1 -178 -2z
m301 -86 c13 -19 16 -58 16 -224 0 -190 -1 -203 -21 -228 -14 -17 -29 -26 -43
-24 -21 3 -21 6 -24 251 l-2 247 29 0 c20 0 35 -8 45 -22z"/>
<path d="M1873 1510 c-22 -9 -23 -15 -23 -109 0 -92 2 -100 20 -106 29 -9 50
12 50 49 0 56 19 106 40 106 20 0 20 -10 20 -400 0 -347 -2 -401 -15 -406 -9
-4 -15 -19 -15 -40 l0 -34 135 0 135 0 0 33 c0 20 -8 39 -20 50 -19 16 -20 29
-20 407 0 381 0 390 20 390 19 0 22 -6 47 -110 8 -30 13 -35 38 -35 l30 0 -3
95 c-2 52 -8 100 -14 107 -12 15 -389 17 -425 3z"/>
<path d="M2373 1514 c-22 -9 -15 -60 10 -76 l22 -15 3 -377 3 -376 -26 -24
c-15 -14 -25 -34 -25 -50 l0 -27 143 3 c141 3 142 3 145 27 3 16 -5 32 -22 48
l-26 24 0 374 0 375 26 16 c19 13 24 24 22 48 l-3 31 -130 2 c-71 1 -136 -1
-142 -3z"/>
<path d="M3817 1513 c-15 -14 -6 -61 13 -74 21 -14 21 -22 21 -399 0 -376 -1
-385 -21 -399 -12 -8 -20 -24 -20 -42 l0 -29 195 0 c223 0 195 -16 216 118 13
87 9 104 -28 100 -23 -3 -29 -11 -48 -68 -27 -85 -31 -90 -66 -90 l-29 0 0
206 0 205 32 -3 c28 -3 34 -8 44 -43 9 -32 16 -41 37 -43 34 -4 39 14 35 143
l-3 100 -30 0 c-26 0 -30 -5 -38 -38 -7 -27 -17 -41 -35 -48 -14 -5 -29 -6
-34 -1 -5 5 -7 82 -6 173 l3 164 25 0 c25 0 41 -23 75 -106 7 -16 20 -25 38
-27 32 -4 33 5 16 107 -19 108 -4 101 -208 101 -98 0 -181 -3 -184 -7z"/>
<path d="M4283 1509 c-19 -20 -15 -57 7 -71 19 -12 20 -24 20 -392 0 -312 -3
-382 -14 -395 -13 -15 -20 -40 -17 -69 1 -10 31 -12 129 -10 124 3 127 4 130
26 2 13 -4 34 -12 47 -13 20 -16 55 -16 180 0 171 3 179 57 153 l28 -13 6
-172 c7 -225 6 -223 129 -223 l90 0 0 34 c0 19 -4 38 -10 41 -5 3 -10 46 -10
95 0 127 -14 180 -57 224 -20 19 -44 38 -54 41 -28 9 -23 21 19 45 76 43 111
133 98 247 -11 92 -55 155 -140 200 -42 23 -364 32 -383 12z m301 -78 c14 -15
17 -42 17 -176 0 -178 -8 -205 -61 -205 l-30 0 0 200 0 200 28 0 c16 0 36 -8
46 -19z"/>
<path d="M4857 1514 c-13 -14 -7 -64 11 -82 17 -17 32 -93 127 -637 19 -110
39 -210 45 -222 8 -19 17 -23 57 -23 27 0 53 4 59 8 5 4 22 75 37 157 30 163
112 608 123 665 4 19 13 42 21 52 8 9 13 31 11 50 l-3 33 -69 0 c-63 0 -69 -2
-77 -23 -7 -19 -4 -28 17 -47 30 -28 31 -8 -16 -280 -18 -104 -36 -194 -41
-199 -10 -11 -13 2 -49 227 -34 216 -36 243 -14 251 10 4 14 16 12 38 l-3 33
-121 3 c-66 1 -123 -1 -127 -4z"/>
<path d="M5387 1513 c-15 -15 -5 -57 18 -79 l25 -23 0 -375 0 -376 -25 -16
c-17 -11 -25 -25 -25 -45 l0 -30 143 3 142 3 3 25 c2 17 -6 34 -23 50 l-25 23
0 364 c0 365 3 403 35 403 21 0 20 66 -1 74 -21 8 -259 8 -267 -1z"/>
<path d="M6157 1513 c-15 -15 -7 -63 13 -73 19 -10 20 -21 20 -398 0 -376 -1
-388 -20 -400 -13 -8 -20 -23 -20 -42 l0 -30 194 0 c223 0 196 -16 216 124 13
86 7 102 -32 93 -18 -5 -28 -22 -48 -79 -24 -69 -27 -73 -57 -76 l-33 -3 0
206 0 206 32 -3 c28 -3 34 -8 44 -43 9 -32 16 -41 37 -43 34 -4 39 14 35 143
l-3 100 -29 0 c-26 0 -31 -5 -40 -40 -10 -35 -16 -40 -44 -43 l-32 -3 2 168 3
168 25 0 c25 0 41 -23 75 -106 7 -16 20 -25 38 -27 23 -3 27 0 26 20 -1 53
-27 171 -40 179 -16 10 -352 12 -362 2z"/>
</g>
</svg>
